# xmcd CD database file
#
# Track frame offsets:
#	150
#	26695
#	41295
#	55955
#	69208
#	85395
#	101730
#	117950
#	129980
#	144713
#	160695
#	179480
#
# Disc length: 2614 seconds
#
# Revision: 0
# Processed by: cddbd v1.4PL0 Copyright (c) Steve Scherf et al.
# Submitted via: CDex 1.40Release
#
DISCID=9f0a340c
DTITLE=Western Union - R‰der
DYEAR=1900
DGENRE=Country
TTITLE0=Transit Cowboy
TTITLE1=Frei wie die Adler
TTITLE2=R‰der
TTITLE3=Highway Driver
TTITLE4=Der Mann im Spiegel
TTITLE5=Der liebe Gott muﬂ`n Cowboy sein
TTITLE6=B‰renstark
TTITLE7=Ausgerechnet mir...
TTITLE8=Sie holt mich hier raus
TTITLE9=Eigentlich brauch` ich nur Dich
TTITLE10=Ich kann lieben, aber zeigen kann ich`s nicht
TTITLE11=Trotzdem sagt sie immer wieder ja
EXTD=ID3G: 2
EXTT0=
EXTT1=
EXTT2=
EXTT3=
EXTT4=
EXTT5=
EXTT6=
EXTT7=
EXTT8=
EXTT9=
EXTT10=
EXTT11=
PLAYORDER=
